<?xml version="1.0" encoding="iso-8859-1"?>
<!-- Uploaded to: SVG Repo, www.svgrepo.com, Generator: SVG Repo Mixer Tools -->
<svg height="800px" width="800px" version="1.1" id="Capa_1" xmlns="http://www.w3.org/2000/svg" xmlns:xlink="http://www.w3.org/1999/xlink" 
	 viewBox="0 0 362.79 362.79" xml:space="preserve">
<g id="XMLID_227_">
	<path id="XMLID_42_" style="fill:#00D7DF;" d="M198.253,183.772c0-26.923,9.04-51.733,24.249-71.564
		c21.272-27.735,7.618-68.324-26.06-77.682c-13.122-3.646-26.945-5.608-41.221-5.639C70.812,28.708,1.189,97.167,0.015,181.567
		c-1.204,86.551,68.595,157.09,154.87,157.09c14.239,0,28.029-1.922,41.125-5.52c33.889-9.311,47.881-49.914,26.492-77.801
		C207.293,235.506,198.253,210.695,198.253,183.772z"/>
	<circle id="XMLID_41_" style="fill:#FFEB99;" cx="65.281" cy="183.772" r="37.172"/>
	<path id="XMLID_228_" style="fill:#00D7DF;" d="M362.79,86.087c0,34.216-19.416,61.954-43.368,61.954s-43.368-27.738-43.368-61.954
		s43.368-61.954,43.368-61.954S362.79,51.871,362.79,86.087z"/>
	<polygon id="XMLID_229_" style="fill:#FFCD00;" points="350.399,132.795 288.445,132.795 288.445,172.795 299.422,172.795 
		299.422,338.657 339.422,338.657 339.422,172.795 350.399,172.795 	"/>
	<path id="XMLID_230_" style="fill:#00969B;" d="M198.253,183.772c0-26.923,9.04-51.733,24.249-71.564
		c21.272-27.735,7.618-68.324-26.06-77.682c-13.122-3.646-26.945-5.608-41.221-5.638c-12.886-0.027-25.424,1.553-37.43,4.537
		v300.749c11.886,2.922,24.307,4.483,37.095,4.483c14.239,0,28.029-1.922,41.125-5.52c33.889-9.311,47.881-49.914,26.492-77.801
		C207.293,235.506,198.253,210.695,198.253,183.772z"/>
	<g id="XMLID_231_">
		<circle id="XMLID_37_" style="fill:#FFEB99;" cx="127.235" cy="97.036" r="37.172"/>
		<circle id="XMLID_36_" style="fill:#FFEB99;" cx="127.235" cy="270.507" r="37.172"/>
	</g>
	<path id="XMLID_232_" style="fill:#FFE477;" d="M127.235,59.864c-3.264,0-6.429,0.424-9.445,1.214v71.916
		c3.016,0.79,6.181,1.214,9.445,1.214c20.53,0,37.172-16.643,37.172-37.172S147.765,59.864,127.235,59.864z"/>
	<path id="XMLID_233_" style="fill:#FFE477;" d="M127.235,233.335c-3.264,0-6.429,0.424-9.445,1.214v71.916
		c3.016,0.79,6.181,1.214,9.445,1.214c20.53,0,37.172-16.643,37.172-37.172S147.765,233.335,127.235,233.335z"/>
	<path id="XMLID_235_" style="fill:#00969B;" d="M319.422,24.133c0,0-0.594,0.38-1.632,1.099v122.75
		c0.542,0.029,1.085,0.059,1.632,0.059c23.951,0,43.368-27.738,43.368-61.954C362.79,51.871,319.422,24.133,319.422,24.133z"/>
	<polygon id="XMLID_236_" style="fill:#FFCD00;" points="317.79,132.795 317.79,338.657 339.422,338.657 339.422,172.795 
		350.399,172.795 350.399,132.795 	"/>
</g>
</svg>